<svg width="512" height="512" viewBox="0 0 512 512" fill="none" xmlns="http://www.w3.org/2000/svg">
<rect width="512" height="512" fill="white"/>
<path d="M175.303 36L96.1895 36.0061L96.1305 316.747L96.1218 421.259C96.1226 426.834 96.0919 432.521 96.0612 438.248C95.9943 450.856 95.9258 463.659 96.1863 475.893L318.641 475.871C312.381 451.858 303.634 425.726 297.983 401.993C294.366 402.019 290.701 402.048 287.002 402.078C267.641 402.234 247.385 402.397 228.515 402L276.548 235.99C286.387 268.414 295.658 301.746 305.078 334.342L345.928 475.383C347.28 476.29 401.984 475.952 414.996 475.871C415.855 475.867 416.532 475.862 417 475.86L343.668 218.86L319.885 136.574C315.36 121.084 309.493 102.711 305.703 87.1563L249.144 87.1791L200.732 255.901C192.305 285.437 183.036 316.094 175.334 345.732L175.303 36Z" fill="#131313"/>
</svg>
