<svg width="24" height="24" viewBox="0 0 24 24" fill="none" xmlns="http://www.w3.org/2000/svg">
<title>Followoo logo</title>
<path d="M20.512 20.965C19.5248 19.4874 18.9986 17.75 19 15.973V9.293C19.0237 7.17831 18.2308 5.13598 16.7864 3.59122C15.342 2.04645 13.3575 1.1183 11.246 0.999999C10.1749 0.967047 9.10811 1.14962 8.10893 1.53688C7.10976 1.92414 6.19856 2.50819 5.42944 3.25436C4.66032 4.00054 4.04895 4.89363 3.63162 5.88062C3.21428 6.86762 2.99949 7.9284 3 9V12C3.00344 14.9163 4.16347 17.7122 6.22563 19.7744C8.28778 21.8365 11.0837 22.9966 14 23H20C20.181 23 20.3587 22.9509 20.514 22.8579C20.6693 22.7648 20.7965 22.6314 20.8819 22.4718C20.9673 22.3121 21.0078 22.1323 20.999 21.9515C20.9902 21.7707 20.9325 21.5956 20.832 21.445L20.512 20.965ZM14 21C11.6139 20.9974 9.32622 20.0483 7.63896 18.361C5.95171 16.6738 5.00265 14.3861 5 12V9C5 7.4087 5.63214 5.88258 6.75736 4.75736C7.88258 3.63214 9.4087 3 11 3C11.062 3 11.124 3 11.186 3C12.7787 3.09912 14.2719 3.80857 15.3548 4.98071C16.4378 6.15285 17.027 7.69741 17 9.293V15.973C16.9984 17.7216 17.415 19.4452 18.215 21H14Z" fill="#6366F1"/>
<path d="M9 9C9 8.73478 8.89464 8.48043 8.70711 8.29289C8.51957 8.10536 8.26522 8 8 8C7.73478 8 7.48043 8.10536 7.29289 8.29289C7.10536 8.48043 7 8.73478 7 9V11C7 11.2652 7.10536 11.5196 7.29289 11.7071C7.48043 11.8946 7.73478 12 8 12C8.26522 12 8.51957 11.8946 8.70711 11.7071C8.89464 11.5196 9 11.2652 9 11V9ZM14 8C13.7348 8 13.4804 8.10536 13.2929 8.29289C13.1054 8.48043 13 8.73478 13 9V11C13 11.2652 13.1054 11.5196 13.2929 11.7071C13.4804 11.8946 13.7348 12 14 12C14.2652 12 14.5196 11.8946 14.7071 11.7071C14.8946 11.5196 15 11.2652 15 11V9C15 8.73478 14.8946 8.48043 14.7071 8.29289C14.5196 8.10536 14.2652 8 14 8ZM12 13H10C9.73478 13 9.48043 13.1054 9.29289 13.2929C9.10536 13.4804 9 13.7348 9 14C9 14.2652 9.10536 14.5196 9.29289 14.7071C9.48043 14.8946 9.73478 15 10 15H12C12.2652 15 12.5196 14.8946 12.7071 14.7071C12.8946 14.5196 13 14.2652 13 14C13 13.7348 12.8946 13.4804 12.7071 13.2929C12.5196 13.1054 12.2652 13 12 13Z" fill="#6366F1"/>
</svg>
