<svg width="24" height="24" viewBox="0 0 24 24" fill="none" xmlns="http://www.w3.org/2000/svg">
<title>GSAP logo</title>
<path d="M9.82994 7.59003C10.6469 7.59503 11.2669 7.82803 11.6719 8.28203C12.0549 8.71303 12.2389 9.33603 12.2189 10.132L12.2049 10.193C12.1969 10.211 12.1849 10.229 12.1699 10.243C12.1399 10.272 12.0989 10.288 12.0569 10.288H10.3979C10.2899 10.288 10.1989 10.2 10.1989 10.093C10.1989 9.66903 10.0709 9.43503 9.80894 9.38303L9.68894 9.37203C9.34694 9.37203 9.12494 9.58303 9.11894 9.95103C9.11194 10.361 9.34394 10.734 10.0039 11.374C10.8719 12.19 11.2209 12.913 11.2039 13.867C11.1769 15.411 10.1269 16.41 8.53094 16.41C7.71594 16.41 7.09294 16.191 6.67794 15.761C6.25794 15.324 6.06594 14.683 6.10594 13.855C6.10794 13.813 6.12494 13.772 6.15494 13.743C6.18494 13.714 6.22594 13.698 6.26694 13.698H7.98294C8.00694 13.699 8.02994 13.705 8.05194 13.715C8.07294 13.726 8.09194 13.741 8.10694 13.76C8.11994 13.775 8.12894 13.793 8.13494 13.813C8.13994 13.832 8.14094 13.853 8.13694 13.873C8.11794 14.171 8.17094 14.394 8.28794 14.518C8.36294 14.598 8.46894 14.639 8.59894 14.639C8.91594 14.639 9.10194 14.414 9.10894 14.024C9.11494 13.687 9.00694 13.39 8.42694 12.792C7.67594 12.058 7.00294 11.3 7.02394 10.108C7.03694 9.41603 7.31094 8.78403 7.79794 8.32703C8.31194 7.84503 9.01394 7.59003 9.82994 7.59003ZM4.04694 7.61803C4.79394 7.61203 5.38094 7.84203 5.78894 8.30303C6.22094 8.79003 6.43994 9.52403 6.44094 10.485C6.43994 10.527 6.42194 10.567 6.39194 10.597C6.36194 10.626 6.32194 10.643 6.27994 10.643H4.47894C4.44794 10.642 4.41694 10.629 4.39494 10.607C4.37294 10.584 4.36094 10.553 4.35994 10.522C4.34594 9.89903 4.17194 9.57603 3.82794 9.53803L3.75694 9.53403C3.06694 9.53503 2.65994 10.472 2.44394 10.992C2.14194 11.719 1.98794 12.507 2.01794 13.293C2.03294 13.659 2.09194 14.173 2.43794 14.386C2.74594 14.575 3.18494 14.45 3.45094 14.24C3.71594 14.031 3.92994 13.669 4.01994 13.339C4.03294 13.293 4.03294 13.258 4.02094 13.241C4.01494 13.233 4.00294 13.229 3.98894 13.226L3.48494 13.222C3.46094 13.222 3.43594 13.216 3.41394 13.206C3.39194 13.196 3.37194 13.181 3.35594 13.162C3.34394 13.148 3.33494 13.13 3.33094 13.112C3.32694 13.093 3.32694 13.074 3.33094 13.056L3.64694 11.682C3.66294 11.611 3.72594 11.558 3.80394 11.548V11.545H6.83894C6.84594 11.545 6.85394 11.545 6.85994 11.546C6.93894 11.556 6.99494 11.63 6.99394 11.71V11.714L6.67794 13.085C6.66094 13.163 6.58294 13.22 6.49394 13.22H6.11294C6.09994 13.22 6.08594 13.225 6.07494 13.233C6.06394 13.241 6.05594 13.253 6.05194 13.266C5.69994 14.46 5.22294 15.282 4.59394 15.775C4.05794 16.195 3.39894 16.391 2.51694 16.391C1.72494 16.391 1.19094 16.136 0.737944 15.633C0.139944 14.967 -0.107056 13.879 0.0429437 12.566C0.312944 10.103 1.58894 7.61803 4.04694 7.61803ZM21.0159 7.75003C23.0259 7.75003 24.0299 8.66203 23.9989 10.461C23.9619 12.569 22.6779 14.119 20.7449 14.477C20.4699 14.527 20.1909 14.547 19.9119 14.545L18.9779 14.541C18.9629 14.541 18.9479 14.547 18.9369 14.558C18.9259 14.568 18.9199 14.583 18.9199 14.598C18.9199 14.608 18.9219 14.618 18.9279 14.627C18.9329 14.636 18.9409 14.643 18.9499 14.648L19.7439 15.062C19.8089 15.096 19.8349 15.153 19.8199 15.226C19.8149 15.249 19.6179 16.139 19.6129 16.159C19.5959 16.237 19.5329 16.282 19.4419 16.282H17.7389C17.7149 16.282 17.6899 16.277 17.6679 16.267C17.6459 16.257 17.6259 16.241 17.6099 16.223C17.5979 16.208 17.5889 16.191 17.5849 16.173C17.5799 16.155 17.5809 16.135 17.5849 16.116L19.4809 7.87503C19.4999 7.78903 19.5809 7.75103 19.6529 7.75103L21.0159 7.75003ZM17.2729 7.76203C17.2919 7.77003 17.3099 7.78103 17.3239 7.79503C17.3379 7.81003 17.3509 7.82803 17.3579 7.84703C17.3659 7.86603 17.3689 7.88603 17.3689 7.90603L17.3579 16.119C17.3609 16.138 17.3599 16.158 17.3549 16.177C17.3499 16.196 17.3399 16.213 17.3279 16.228C17.3129 16.245 17.2949 16.259 17.2739 16.268C17.2539 16.277 17.2319 16.282 17.2099 16.281H15.3969C15.3769 16.282 15.3559 16.277 15.3369 16.27C15.3179 16.262 15.2999 16.25 15.2859 16.236C15.2719 16.221 15.2599 16.204 15.2529 16.185C15.2449 16.166 15.2409 16.146 15.2409 16.125L15.2799 15.328C15.2819 15.241 15.2799 15.217 15.2289 15.211L15.1609 15.209H13.4469C13.3229 15.209 13.3139 15.22 13.2699 15.334L12.9139 16.191C12.8819 16.252 12.8179 16.281 12.7219 16.281H10.9269C10.8179 16.281 10.7399 16.173 10.7809 16.072L14.4989 7.87303C14.5239 7.82403 14.5619 7.75003 14.6479 7.75003H17.2139C17.2339 7.75003 17.2539 7.75403 17.2729 7.76203ZM15.4999 9.98503C15.4919 9.95303 15.4659 9.95603 15.4449 9.99803C15.4299 10.028 15.4159 10.06 15.4049 10.091L14.1209 13.274C14.1139 13.294 14.1089 13.31 14.1049 13.322C14.1039 13.328 14.1029 13.335 14.1039 13.341C14.1049 13.347 14.1079 13.353 14.1109 13.358C14.1149 13.363 14.1199 13.367 14.1259 13.37C14.1309 13.373 14.1369 13.376 14.1429 13.376L15.2149 13.39C15.3339 13.38 15.3399 13.374 15.3519 13.253C15.3539 13.21 15.5059 10.022 15.4999 9.98503ZM20.1119 9.58203C20.0969 9.58203 20.0829 9.58803 20.0719 9.59903C20.0609 9.60903 20.0549 9.62403 20.0539 9.63903C20.0539 9.64903 20.0569 9.65903 20.0619 9.66803C20.0679 9.67703 20.0749 9.68503 20.0839 9.69003C20.0969 9.69703 20.8689 10.104 20.9259 10.135C20.9679 10.158 20.9689 10.198 20.9549 10.267C20.9479 10.298 20.4149 12.642 20.4159 12.644C20.4189 12.647 20.4349 12.655 20.5149 12.655H20.5509C21.4459 12.619 21.9339 11.561 21.9519 10.534C21.9609 9.97903 21.7719 9.63803 21.4289 9.58803L21.3579 9.58203H20.1119Z" fill="black"/>
</svg>
