<svg width="24" height="24" viewBox="0 0 24 24" fill="none" xmlns="http://www.w3.org/2000/svg">
<title>RxJS logo</title>
<g clip-path="url(#clip0_2219_160)">
<path d="M7.40204 2.34299C5.17804 3.32699 3.78704 4.92599 3.00204 6.08999C2.15004 7.35799 1.81804 8.40899 1.81804 8.41799C1.81604 8.45399 1.82304 8.40099 1.81804 8.43699C1.57204 9.13699 1.34504 10.235 1.34504 10.244C1.08004 11.588 1.20304 12.837 1.20304 12.856L1.23204 13.102C1.25802 12.7626 1.30209 12.4247 1.36404 12.09C1.38304 11.957 1.73404 10.074 3.05804 8.57899C3.20004 8.36099 4.73304 6.34599 7.55304 6.34599C8.15904 6.34599 8.79304 6.43999 9.42704 6.62899H9.44604C9.48404 6.63899 10.316 6.94199 10.619 7.09299C10.903 7.23499 11.405 7.45299 11.414 7.45299H11.434C14.149 8.77799 16.496 9.20299 16.515 9.21299C17.187 9.32699 17.793 9.38299 18.332 9.38299C19.411 9.38299 20.187 9.14699 20.594 8.69299C20.831 8.43299 20.901 8.13399 20.887 7.87899C20.906 6.89399 20.102 5.83499 19.42 5.12499C18.9494 4.62951 18.4331 4.17952 17.878 3.78099C15.834 2.26699 13.648 1.50099 11.358 1.50099C9.01104 1.50999 7.42104 2.33299 7.40204 2.34299ZM14.821 5.00199C15.105 5.00199 15.332 5.22899 15.332 5.51199C15.3324 5.57926 15.3195 5.64593 15.294 5.70816C15.2684 5.7704 15.2308 5.82695 15.1833 5.87456C15.1358 5.92217 15.0793 5.95989 15.0171 5.98554C14.9549 6.01119 14.8883 6.02426 14.821 6.02399C14.7539 6.02426 14.6873 6.01122 14.6252 5.98563C14.5631 5.96005 14.5066 5.92242 14.4591 5.87491C14.4116 5.82741 14.374 5.77097 14.3484 5.70886C14.3228 5.64674 14.3098 5.58017 14.31 5.51299C14.31 5.22899 14.537 5.00199 14.821 5.00199ZM8.21603 3.06199C8.29103 3.06199 8.33904 3.08099 8.35804 3.08099L11.585 4.08399L11.462 4.33899L9.91903 3.85699C9.37103 3.68699 8.79903 3.50599 8.26303 3.33699C8.25303 3.33699 8.23503 3.32699 8.21603 3.32699C8.19603 3.32699 8.16804 3.32699 8.14904 3.33699C7.85604 3.41199 7.05204 3.69599 6.81504 4.12199C6.78337 4.17912 6.76367 4.24209 6.75714 4.30708C6.7506 4.37207 6.75737 4.43771 6.77704 4.49999C6.77704 4.50999 6.94704 5.03999 7.37304 5.58799L9.51303 5.48399L10.941 5.41799L10.799 5.71099L7.25004 5.88099C6.72004 5.23799 6.51204 4.59499 6.51204 4.59499C6.18104 3.55399 8.08304 3.06999 8.08304 3.06999C8.12804 3.06899 8.17303 3.06399 8.21603 3.05999V3.06199ZM19.439 18.809C21.616 17.863 22.543 16.225 22.543 16.225C24.578 13.453 23.887 10.528 23.887 10.528C22.591 13.348 21.407 14.124 21.407 14.124C24.597 9.26999 21.427 6.33599 21.427 6.33599C22.723 9.09999 21 12.468 21 12.468C19.552 15.516 17.498 16.604 17.498 16.604C19.788 17.03 21.473 15.487 21.473 15.487C18.189 19.036 14.631 18.866 14.631 18.866C16.126 20.541 18.369 20.399 18.369 20.399C15.435 21.089 12.681 20.115 10.419 18.232C9.99403 17.882 9.58703 17.502 9.20903 17.096C9.06503 16.946 8.92904 16.786 8.79204 16.632C8.74504 18.383 10.571 20.011 10.571 20.011C8.28104 19.064 7.23104 17.011 7.23104 17.011C7.23104 17.011 5.68804 14.38 6.80504 11.38C7.91204 8.41799 11.224 7.75399 11.309 7.73499C11.058 7.61799 10.665 7.44299 10.495 7.36799C10.202 7.22599 9.35004 6.91299 9.35004 6.91299C8.76681 6.73649 8.16136 6.64423 7.55204 6.63899C4.76004 6.63899 3.27504 8.74899 3.27504 8.74899C1.95904 10.226 1.64704 12.137 1.64704 12.137C1.27704 13.964 1.67504 15.885 1.67504 15.885C1.67504 15.885 1.71304 16.036 1.72304 16.102C2.02604 16.822 2.41304 17.532 2.86804 18.203C5.32804 21.875 9.32203 23.143 9.32203 23.143C15.236 25.149 19.277 22.197 19.277 22.197C22.997 19.642 23.744 16.689 23.744 16.689C20.734 19.027 19.439 18.809 19.439 18.809ZM1.30704 14.948C1.14419 14.3641 1.02388 13.7692 0.947035 13.168C0.937035 13.07 0.922035 12.961 0.910035 12.866C0.910035 12.866 0.777035 11.579 1.06104 10.169C1.06104 10.169 1.07104 10.131 1.08104 10.074C1.11704 9.87099 1.17404 9.66699 1.21304 9.49699C1.29804 9.12699 1.42104 8.68299 1.54304 8.32299C1.54304 8.32299 2.85004 4.03599 7.26904 2.07799C7.26904 2.07799 8.79304 1.27299 11.092 1.21599C10.93 1.05599 10.743 0.886993 10.582 0.780993C9.50204 0.0609933 7.89404 -0.175007 6.91904 0.837993C6.62604 1.14099 6.37904 1.47199 6.10504 1.77499C5.79304 2.11499 5.41504 2.39899 4.97904 2.55999C4.60104 2.70199 4.22204 2.67399 3.83404 2.73999C3.43704 2.80599 3.03004 2.94799 2.70804 3.20399C2.35804 3.48799 2.21604 3.86599 2.17804 4.30099C2.14004 4.64199 2.15004 4.99199 2.13104 5.33299C2.08304 6.33599 1.76104 6.61999 1.04204 7.17799C0.739035 7.40499 0.484035 7.70799 0.295035 8.02999C-0.272965 9.03299 0.635035 10.074 0.683035 11.087C0.693035 11.295 0.673035 11.503 0.598035 11.702C0.522035 11.919 0.370035 12.062 0.248035 12.242C0.0770353 12.478 -0.0369647 12.762 0.0110353 13.055C0.0580353 13.348 0.210035 13.623 0.351035 13.878C0.626035 14.333 0.967035 14.74 1.32604 15.128C1.33804 15.144 1.36404 15.168 1.38004 15.18L1.30704 14.948Z" fill="black"/>
</g>
<defs>
<clipPath id="clip0_2219_160">
<rect width="24" height="24" fill="white"/>
</clipPath>
</defs>
</svg>
